HIERARCHY
ROOT SpineBase
{
  OFFSET 0.000000 0.000000 0.000000
  CHANNELS 6 Xposition Yposition Zposition Zrotation Xrotation Yrotation
  JOINT SpineMid
  {
    OFFSET 0.000000 27.205286 -0.000000
    CHANNELS 3 Zrotation Xrotation Yrotation
    JOINT SpineShoulder
    {
      OFFSET 0.077392 20.422842 -0.505792
      CHANNELS 3 Zrotation Xrotation Yrotation
      JOINT Neck
      {
        OFFSET 0.083337 6.843625 -0.441455
        CHANNELS 3 Zrotation Xrotation Yrotation
        JOINT Head
        {
          OFFSET 3.584026 14.094491 -0.682561
          CHANNELS 3 Zrotation Xrotation Yrotation
          End Site
          {
            OFFSET 0 0 0
          }
        }
      }
      JOINT ShoulderLeft
      {
        OFFSET -9.880030 0.781255 -10.220746
        CHANNELS 3 Zrotation Xrotation Yrotation
        JOINT ElbowLeft
        {
          OFFSET 0.131627 -20.494368 -10.053885
          CHANNELS 3 Zrotation Xrotation Yrotation
          JOINT WristLeft
          {
            OFFSET 11.419193 -12.833757 -9.205638
            CHANNELS 3 Zrotation Xrotation Yrotation
            JOINT HandLeft
            {
              OFFSET 3.706944 -2.817640 -4.176705
              CHANNELS 3 Zrotation Xrotation Yrotation
              JOINT HandTipLeft
              {
                OFFSET 5.964253 -1.636317 -5.807544
                CHANNELS 3 Zrotation Xrotation Yrotation
                End Site
                {
                  OFFSET 0 0 0
                }
              }
              JOINT ThumbLeft
              {
                OFFSET -3.212530 -2.320414 -2.091071
                CHANNELS 3 Zrotation Xrotation Yrotation
                End Site
                {
                  OFFSET 0 0 0
                }
              }
            }
          }
        }
      }
      JOINT ShoulderRight
      {
        OFFSET 14.272955 -3.712356 9.646836
        CHANNELS 3 Zrotation Xrotation Yrotation
        JOINT ElbowRight
        {
          OFFSET 9.969292 -23.639428 -2.100329
          CHANNELS 3 Zrotation Xrotation Yrotation
          JOINT WristRight
          {
            OFFSET 3.711939 -13.708200 -14.034327
            CHANNELS 3 Zrotation Xrotation Yrotation
            JOINT HandRight
            {
              OFFSET 3.025736 -4.204825 -4.493317
              CHANNELS 3 Zrotation Xrotation Yrotation
              JOINT HandTipRight
              {
                OFFSET 4.401611 -6.444439 -4.523468
                CHANNELS 3 Zrotation Xrotation Yrotation
                End Site
                {
                  OFFSET 0 0 0
                }
              }
              JOINT ThumbRight
              {
                OFFSET -2.411749 -1.652414 -2.833922
                CHANNELS 3 Zrotation Xrotation Yrotation
                End Site
                {
                  OFFSET 0 0 0
                }
              }
            }
          }
        }
      }
    }
  }
  JOINT HipLeft
  {
    OFFSET -5.041074 1.832646 -7.210710
    CHANNELS 3 Zrotation Xrotation Yrotation
    JOINT KneeLeft
    {
      OFFSET 14.851962 3.513898 -29.237243
      CHANNELS 3 Zrotation Xrotation Yrotation
      JOINT AnkleLeft
      {
        OFFSET 8.149705 -30.464621 6.650171
        CHANNELS 3 Zrotation Xrotation Yrotation
        JOINT FootLeft
        {
          OFFSET 8.771004 -2.339889 -11.025463
          CHANNELS 3 Zrotation Xrotation Yrotation
          End Site
          {
            OFFSET 0 0 0
          }
        }
      }
    }
  }
  JOINT HipRight
  {
    OFFSET 6.008360 0.813527 1.335181
    CHANNELS 3 Zrotation Xrotation Yrotation
    JOINT KneeRight
    {
      OFFSET 29.969383 2.088197 -9.474195
      CHANNELS 3 Zrotation Xrotation Yrotation
      JOINT AnkleRight
      {
        OFFSET -6.082423 -31.825666 -8.764593
        CHANNELS 3 Zrotation Xrotation Yrotation
        JOINT FootRight
        {
          OFFSET 7.297007 -2.386615 -10.752031
          CHANNELS 3 Zrotation Xrotation Yrotation
          End Site
          {
            OFFSET 0 0 0
          }
        }
      }
    }
  }
}
MOTION
Frames: 9
Frame Time: 0.033333
-57.687809 34.998656 346.179128 -0.501054 -1.460885 -34.975000 0.538274 -0.794550 34.964746 0.271507 -0.134514 0.012944 0.818824 -5.743228 2.131918 0.000000 0.000000 0.000000 1.228007 22.068920 -0.538238 36.969290 -13.640684 -7.862433 -5.523810 -1.997171 -11.954564 -15.461540 -10.681477 0.960857 0.000000 0.000000 0.000000 0.000000 0.000000 0.000000 20.120920 25.719672 2.852443 -33.382409 24.887796 13.289063 9.820825 -7.338194 7.590486 -7.895162 2.453325 2.325655 0.000000 0.000000 0.000000 0.000000 0.000000 0.000000 1.251504 -4.701591 39.902086 5.140222 -0.714940 -6.132912 -8.857768 -0.182359 8.883019 0.000000 0.000000 0.000000 -3.188493 -2.262083 35.780092 3.175919 1.544720 -0.521630 -6.241481 -6.836721 22.717349 0.000000 0.000000 0.000000
-57.690421 34.980781 346.168869 -0.458240 -1.471111 -34.933388 0.620137 -0.668631 34.926663 0.309518 -0.073644 0.021109 -0.125736 -6.385771 2.200402 0.000000 0.000000 0.000000 2.879422 22.237966 -1.756281 36.082781 -13.543282 -7.436954 -4.886675 -2.073041 -12.874322 -16.821249 -12.951902 0.422013 0.000000 0.000000 0.000000 0.000000 0.000000 0.000000 18.521405 25.531542 3.310310 -33.100086 26.227398 14.656699 6.829094 -6.394218 9.749684 -6.634585 -1.556510 -2.039989 0.000000 0.000000 0.000000 0.000000 0.000000 0.000000 1.261388 -5.302675 39.553247 5.272362 -0.362619 -5.938307 -9.405291 -1.115719 9.088200 0.000000 0.000000 0.000000 -3.229974 -2.269837 35.712614 3.094347 1.604709 -0.483215 -6.066524 -7.159734 20.696028 0.000000 0.000000 0.000000
-57.693111 34.964843 346.157484 -0.472199 -1.516743 -34.907151 0.611125 -0.644086 34.899633 0.227072 -0.067872 0.017239 -0.092703 -6.200104 2.156052 0.000000 0.000000 0.000000 3.637211 23.026358 -2.197664 36.229039 -14.707848 -7.210493 -4.913603 -1.860646 -13.064704 -18.132592 -13.501930 2.985788 0.000000 0.000000 0.000000 0.000000 0.000000 0.000000 18.279597 24.176476 3.076449 -32.153911 29.529820 15.610301 -4.537856 -7.963799 13.009331 1.557012 0.921478 -3.153019 0.000000 0.000000 0.000000 0.000000 0.000000 0.000000 1.268951 -5.635769 39.277697 5.355055 -0.079071 -5.753472 -9.534000 -1.464620 9.126075 0.000000 0.000000 0.000000 -3.265918 -2.240976 35.638305 2.919722 1.749416 -0.397541 -7.325811 -10.917782 17.234576 0.000000 0.000000 0.000000
-57.693903 34.950570 346.145081 -0.468443 -1.501283 -34.879449 0.531847 -0.531786 34.871194 0.140610 -0.026570 0.012033 -0.296955 -6.457335 2.151726 0.000000 0.000000 0.000000 3.662837 23.769526 -2.157957 37.040379 -16.411163 -7.149061 -5.685122 -2.256643 -12.951629 -18.432097 -13.546950 3.439169 0.000000 0.000000 0.000000 0.000000 0.000000 0.000000 18.940614 21.549834 2.365667 -33.577592 32.008937 17.832460 -10.210903 -8.074826 14.977972 5.214176 1.980392 -3.566376 0.000000 0.000000 0.000000 0.000000 0.000000 0.000000 1.288176 -6.085896 38.907933 5.347208 0.099368 -5.536333 -9.004646 -0.857571 9.073960 0.000000 0.000000 0.000000 -3.289439 -2.275696 35.521459 2.776367 1.902832 -0.282489 -7.292376 -12.125259 10.613481 0.000000 0.000000 0.000000
-57.691408 34.939106 346.129817 -0.481942 -1.546097 -34.729282 0.490343 -0.512266 34.719862 0.086976 -0.028713 0.008292 -0.162597 -5.857128 2.011619 0.000000 0.000000 0.000000 2.845768 24.773225 -1.570520 38.752128 -18.497693 -7.321081 -7.768528 -2.731195 -11.558230 -17.761079 -12.060558 3.934818 0.000000 0.000000 0.000000 0.000000 0.000000 0.000000 20.151273 18.366791 1.302489 -36.467450 33.971374 20.966999 -9.755876 -7.888170 14.932347 2.006114 5.037346 -0.926712 0.000000 0.000000 0.000000 0.000000 0.000000 0.000000 1.244479 -6.257995 38.478213 5.233358 0.154096 -5.350027 -8.023411 0.399425 9.087578 0.000000 0.000000 0.000000 -3.339970 -2.241207 35.255103 2.686965 2.055587 -0.154072 -5.692977 -10.942333 2.205071 0.000000 0.000000 0.000000
-57.684747 34.931264 346.118570 -0.508220 -1.656965 -34.630645 0.492182 -0.595017 34.619744 0.022725 -0.159601 0.005163 0.565561 -4.528121 1.802018 0.000000 0.000000 0.000000 2.552522 25.655694 -1.299512 39.491394 -19.677480 -7.330636 -10.224197 -3.448808 -9.528111 -16.171361 -10.325088 2.443956 0.000000 0.000000 0.000000 0.000000 0.000000 0.000000 21.581892 14.940485 0.042863 -39.289408 35.430074 23.908371 -3.534980 -7.600026 12.812121 -7.091370 10.330618 5.946519 0.000000 0.000000 0.000000 0.000000 0.000000 0.000000 1.333850 -6.933939 38.441918 5.853784 0.288543 -5.552915 -7.182930 2.631719 9.019052 0.000000 0.000000 0.000000 -3.404850 -2.142438 35.089310 2.661074 2.171045 -0.087171 -4.064016 -9.513412 -2.524394 0.000000 0.000000 0.000000
-57.671277 34.917435 346.103213 -0.546640 -1.827699 -34.542830 0.529486 -0.702322 34.530226 -0.009544 -0.299922 0.004401 1.583077 -3.125956 1.596315 0.000000 0.000000 0.000000 1.794256 25.966853 -0.736234 39.753619 -19.774258 -7.510696 -11.968819 -3.648668 -7.535627 -14.329051 -8.633986 0.760554 0.000000 0.000000 0.000000 0.000000 0.000000 0.000000 22.741412 10.619717 -1.346464 -42.017002 37.446161 27.323762 -0.531218 -6.932470 11.981068 -5.908032 11.014630 6.862559 0.000000 0.000000 0.000000 0.000000 0.000000 0.000000 1.040798 -5.942008 37.903172 4.724148 0.025834 -5.081215 -4.879502 4.416913 8.631537 0.000000 0.000000 0.000000 -3.477590 -1.971842 34.958465 2.660697 2.193141 -0.039596 -4.449794 -9.443252 1.550426 0.000000 0.000000 0.000000
-57.658546 34.898029 346.093788 -0.596920 -2.056584 -34.546222 0.598481 -0.843117 34.531567 -0.017178 -0.465487 0.005396 2.710022 -1.291004 1.273704 0.000000 0.000000 0.000000 0.875342 25.023828 -0.077026 40.483815 -18.288569 -8.591717 -13.707865 -3.827624 -5.675291 -12.615104 -6.961622 -0.056827 0.000000 0.000000 0.000000 0.000000 0.000000 0.000000 23.164801 8.731477 -2.121405 -43.151180 38.287732 28.934286 2.037722 -7.116205 10.741577 -4.359839 10.309778 6.394387 0.000000 0.000000 0.000000 0.000000 0.000000 0.000000 0.760082 -4.647909 37.793782 3.778560 -0.460476 -4.884955 -2.686223 6.480523 8.095674 0.000000 0.000000 0.000000 -3.540572 -1.721258 34.963882 2.654127 2.142745 -0.032510 -5.252563 -10.265824 3.335672 0.000000 0.000000 0.000000
-57.651910 34.876188 346.088305 -0.669876 -2.318101 -34.662029 0.636584 -0.973301 34.643569 -0.040672 -0.581084 0.003348 3.901230 0.440662 0.926788 0.000000 0.000000 0.000000 0.268366 24.519240 0.417266 40.293806 -17.569562 -9.253722 -12.563355 -0.877124 -4.833111 -12.105090 -8.567514 -2.999896 0.000000 0.000000 0.000000 0.000000 0.000000 0.000000 22.851033 10.129072 -2.034177 -41.311283 37.461759 27.166096 1.126804 -6.186012 11.554673 -1.023495 4.812973 1.477422 0.000000 0.000000 0.000000 0.000000 0.000000 0.000000 0.523582 -3.395821 37.937108 3.087761 -0.876756 -4.802081 -3.891120 3.900751 8.278447 0.000000 0.000000 0.000000 -3.570108 -1.405807 35.126081 2.669871 2.022531 -0.076616 -4.826876 -7.885907 11.770193 0.000000 0.000000 0.000000
